<svg width="148" height="48" viewBox="0 0 148 48" fill="none" xmlns="http://www.w3.org/2000/svg">
<g id="Vinamilk Logo" clip-path="url(#clip0_1388_42683)">
<g id="Vector">
<path d="M2.27804 47.0348H6.06385C6.15518 47.0348 6.21537 46.9749 6.21537 46.8839V45.0667C6.21537 44.9757 6.15518 44.9158 6.06385 44.9158H4.33076C4.23944 44.9158 4.17925 44.8558 4.17925 44.7649V42.7203C4.17925 42.6293 4.23944 42.5693 4.33076 42.5693H5.92687C6.01819 42.5693 6.07838 42.5094 6.07838 42.4184V40.6178C6.07838 40.5268 6.01819 40.4669 5.92687 40.4669H4.33076C4.23944 40.4669 4.17925 40.4069 4.17925 40.3159V38.8461C4.17925 38.6497 4.2851 38.5442 4.60474 38.5442C4.98456 38.5442 5.53251 38.6207 5.958 38.8771C6.12612 38.968 6.21745 38.937 6.21745 38.7716V36.5906C6.21745 36.4996 6.15726 36.4397 6.06593 36.4397H1.97501C1.83802 36.4397 1.76122 36.5306 1.79236 36.6671C1.92934 37.3038 1.97501 37.6656 1.97501 38.968V46.735C1.97501 46.9314 2.08086 47.0369 2.27804 47.0369V47.0348Z" fill="#FFFFF1"/>
<path d="M8.63513 47.186C10.3371 47.186 11.3251 45.8546 11.3251 44.0519C11.3251 42.7184 10.7626 41.9163 10.1088 41.1597L9.92613 40.9467C9.37818 40.3265 9.02949 39.8862 9.02949 39.3115C9.02949 38.9476 9.21214 38.5693 9.63763 38.5693C10.0175 38.5693 10.2458 38.7657 10.5488 39.206C10.7626 39.5244 10.8082 39.5844 10.9286 39.5844C11.0656 39.5844 11.1113 39.4768 11.1113 39.3115V37.5108C11.1113 37.2379 11.0656 36.996 10.8684 36.7686C10.5945 36.4813 10.0922 36.2849 9.44045 36.2849C7.73849 36.2849 6.77959 37.6328 6.77959 39.45C6.77959 40.7979 7.41886 41.6765 8.04152 42.3877L8.13285 42.4931C8.63513 43.0678 9.06062 43.5371 9.06062 44.1139C9.06062 44.4612 8.8925 44.9016 8.42135 44.9016C7.9502 44.9016 7.6617 44.5542 7.34206 44.0395C7.15941 43.7211 7.12828 43.6301 6.99129 43.6301C6.83978 43.6301 6.79411 43.7811 6.79411 43.932V45.96C6.79411 46.2329 6.83978 46.4748 7.03695 46.6857C7.31093 46.9875 7.83812 47.186 8.63306 47.186H8.63513Z" fill="#FFFFF1"/>
<path d="M13.4614 47.0349H15.0575C15.2547 47.0349 15.3626 46.9294 15.3626 46.733V38.7531C15.3626 38.6477 15.3771 38.5567 15.5598 38.5567C15.8628 38.5567 16.1077 38.7221 16.5789 38.9495C16.747 39.026 16.8362 38.9495 16.8362 38.7841V36.5886C16.8362 36.4976 16.7761 36.4377 16.6847 36.4377H11.8362C11.7449 36.4377 11.6847 36.4976 11.6847 36.5886V38.7841C11.6847 38.9516 11.776 39.026 11.9442 38.9495C12.4153 38.7221 12.6581 38.5567 12.9633 38.5567C13.1459 38.5567 13.1604 38.6477 13.1604 38.7531V46.733C13.1604 46.9294 13.2663 47.0349 13.4635 47.0349H13.4614Z" fill="#FFFFF1"/>
<path d="M130.342 47.0349C130.539 47.0349 130.645 46.9294 130.645 46.733V36.7395C130.645 36.5431 130.539 36.4377 130.342 36.4377H129.051C128.869 36.4377 128.808 36.5142 128.686 36.7705C128.352 37.4817 128.001 38.0729 127.501 38.6477C127.318 38.8606 127.287 38.9805 127.287 39.2844V41.42C127.287 41.5874 127.347 41.6763 127.438 41.6763C127.59 41.6763 127.696 41.4799 128.121 40.8432L128.441 40.3739C128.501 40.2829 128.532 40.2685 128.563 40.2685C128.624 40.2685 128.624 40.345 128.624 40.4504V46.733C128.624 46.9294 128.729 47.0349 128.927 47.0349H130.342Z" fill="#FFFFF1"/>
<path d="M133.898 36.2849C132.09 36.2849 131.268 37.6783 131.268 39.9647C131.268 42.0383 131.953 43.3552 133.258 43.3552C133.744 43.3552 134.124 43.1422 134.369 42.8549C134.46 42.7494 134.551 42.7329 134.551 42.9769C134.551 44.3392 134.111 45.1269 133.381 45.1269C132.91 45.1269 132.681 44.8251 132.347 44.3103C132.225 44.1284 132.133 44.0229 132.013 44.0229C131.876 44.0229 131.816 44.1594 131.816 44.3558V46.0365C131.816 46.3838 131.893 46.6278 132.15 46.8242C132.407 47.0206 132.895 47.188 133.532 47.188C135.676 47.188 136.693 45.2654 136.693 41.2692C136.693 37.8767 135.828 36.289 133.895 36.289L133.898 36.2849ZM133.426 39.8572C133.426 38.2985 133.64 37.9491 133.929 37.9491C134.232 37.9491 134.445 38.3129 134.445 39.8572C134.445 41.4015 134.232 41.7654 133.929 41.7654C133.626 41.7654 133.426 41.4181 133.426 39.8572Z" fill="#FFFFF1"/>
<path d="M137.75 47.0348H139.301C139.574 47.0348 139.649 46.9583 139.649 46.6875C139.635 43.9007 140.349 41.3269 141.64 38.6931C141.777 38.4202 141.822 38.2238 141.822 37.9364V36.7415C141.822 36.5451 141.716 36.4397 141.519 36.4397H137.233C137.036 36.4397 136.93 36.5451 136.93 36.7415V38.3458C136.93 38.5422 137.036 38.6476 137.233 38.6476H139.255C139.574 38.6476 139.529 38.7985 139.406 39.0259C138.084 41.5088 137.445 43.9627 137.37 46.6565C137.356 46.9583 137.462 47.0348 137.75 47.0348Z" fill="#FFFFF1"/>
<path d="M144.662 47.186C146.472 47.186 147.291 45.7926 147.291 43.5061C147.291 41.4326 146.607 40.1157 145.301 40.1157C144.815 40.1157 144.435 40.3286 144.191 40.616C144.099 40.7214 144.008 40.7379 144.008 40.494C144.008 39.1316 144.448 38.3439 145.179 38.3439C145.65 38.3439 145.878 38.6458 146.212 39.1626C146.335 39.3445 146.426 39.45 146.546 39.45C146.683 39.45 146.744 39.3135 146.744 39.1171V37.4364C146.744 37.0891 146.667 36.8451 146.409 36.6487C146.152 36.4523 145.664 36.2849 145.027 36.2849C142.883 36.2849 141.866 38.2075 141.866 42.2037C141.866 45.5962 142.734 47.1839 144.664 47.1839L144.662 47.186ZM144.114 43.6136C144.114 42.0693 144.328 41.7054 144.631 41.7054C144.934 41.7054 145.133 42.0528 145.133 43.6136C145.133 45.1744 144.919 45.5218 144.631 45.5218C144.328 45.5218 144.114 45.1579 144.114 43.6136Z" fill="#FFFFF1"/>
<path d="M31.481 8.49125C30.6716 8.83236 29.7396 9.01842 28.7185 9.01842C27.6973 9.01842 26.7633 8.83443 25.9538 8.49539C25.2689 8.20803 24.723 8.54914 24.723 9.28718V31.4822C24.723 31.968 25.1174 32.3608 25.6051 32.3608H31.8297C32.3175 32.3608 32.7118 31.968 32.7118 31.4822V9.28304C32.7118 8.54294 32.1639 8.20182 31.479 8.49125H31.481Z" fill="#FFFFF1"/>
<path d="M28.6832 0C26.0659 0 24.3349 1.40786 24.4055 3.73155C24.476 5.94981 26.1033 7.4631 28.7185 7.4631C31.3337 7.4631 32.9962 5.94981 32.9962 3.73155C32.9962 1.51329 31.3005 0 28.6832 0Z" fill="#FFFFF1"/>
<path d="M113.941 8.49125C113.132 8.83236 112.2 9.01842 111.179 9.01842C110.157 9.01842 109.223 8.83443 108.414 8.49539C107.729 8.20803 107.183 8.54914 107.183 9.28718V31.4822C107.183 31.968 107.577 32.3608 108.065 32.3608H114.29C114.778 32.3608 115.172 31.968 115.172 31.4822V9.28304C115.172 8.54294 114.624 8.20182 113.939 8.49125H113.941Z" fill="#FFFFF1"/>
<path d="M111.143 0C108.528 0 106.795 1.40786 106.865 3.73155C106.936 5.94981 108.563 7.4631 111.178 7.4631C113.793 7.4631 115.456 5.94981 115.456 3.73155C115.456 1.51329 113.758 0 111.143 0Z" fill="#FFFFF1"/>
<path d="M124.327 0.472915H117.411C116.803 0.472915 116.417 1.00009 116.552 1.55C117.008 3.41681 117.22 5.67021 117.22 8.71334V31.481C117.22 31.9668 117.614 32.3596 118.102 32.3596H124.327C124.814 32.3596 125.209 31.9668 125.209 31.481V1.3536C125.209 0.867777 124.814 0.474982 124.327 0.474982V0.472915Z" fill="#FFFFF1"/>
<path d="M23.0294 0.472915H14.4386C13.8762 0.472915 13.5026 0.954605 13.6811 1.50245C14.2643 3.28036 14.2124 4.87015 14.0962 6.3545L12.7533 23.8401C12.7139 24.3466 12.087 24.3466 12.0497 23.8401L10.7213 6.3545C10.6051 4.87015 10.5532 3.28243 11.1364 1.50245C11.317 0.954605 10.9434 0.472915 10.3789 0.472915H1.55566C0.897706 0.472915 0.48467 1.07865 0.74619 1.69885C1.52868 3.55946 1.9085 5.38699 2.13059 6.91682L5.78565 31.237C5.8832 31.882 6.43945 32.3596 7.09532 32.3596H17.4752C18.1311 32.3596 18.6873 31.882 18.7849 31.237L22.4545 6.91682C22.6786 5.38699 23.0584 3.55946 23.8389 1.69885C24.1004 1.07658 23.6853 0.472915 23.0294 0.472915Z" fill="#FFFFF1"/>
<path d="M147.239 31.285L140.35 18.4179C140.186 18.114 140.103 17.8245 140.103 17.5723C140.103 16.8322 140.622 16.1872 142 16.1872C142.718 16.1872 143.258 16.2596 143.974 16.4125C144.431 16.5097 144.862 16.241 144.862 15.6972V8.9205C144.862 8.11011 144.067 7.95919 143.152 7.95919C138.175 7.95919 136.699 11.5109 136.384 15.23C136.288 16.3547 136.006 16.8343 135.51 16.8343C135.348 16.8343 135.244 16.733 135.244 16.5035V1.35403C135.244 0.868207 134.85 0.475412 134.362 0.475412H127.446C126.838 0.475412 126.452 1.00258 126.587 1.5525C127.044 3.41931 127.255 5.67271 127.255 8.71584V31.4835C127.255 31.9693 127.65 32.3621 128.137 32.3621H134.362C134.85 32.3621 135.244 31.9693 135.244 31.4835V23.8943C135.244 23.6296 135.522 23.5449 135.614 23.7971L138.522 31.5703C138.683 32.0458 139.132 32.3642 139.636 32.3642H146.591C147.185 32.3642 147.502 31.775 147.241 31.2871L147.239 31.285Z" fill="#FFFFF1"/>
<path d="M48.1106 7.95665C45.979 7.95665 44.1795 8.49623 42.7121 9.98265C42.573 10.1232 42.3343 10.024 42.3343 9.8276V9.29216C42.3343 8.80633 41.94 8.41354 41.4522 8.41354H34.9474C34.3372 8.41354 33.9532 8.94484 34.0902 9.49682C34.5468 11.3616 34.7565 13.6129 34.7565 16.654V31.4809C34.7565 31.9668 35.1508 32.3596 35.6386 32.3596H41.8632C42.3509 32.3596 42.7453 31.9668 42.7453 31.4809V15.7381C42.7453 14.6197 43.3472 13.9768 44.302 13.9768C45.1861 13.9768 45.7507 14.6176 45.7507 15.7381V31.4809C45.7507 31.9668 46.145 32.3596 46.6328 32.3596H52.8574C53.3452 32.3596 53.7395 31.9668 53.7395 31.4809V13.9437C53.7395 10.0943 51.5 7.95665 48.1065 7.95665H48.1106Z" fill="#FFFFF1"/>
<path d="M99.7108 7.95665C97.4879 7.95665 95.568 8.82907 94.3226 10.1108C94.1753 10.2617 93.9781 10.2514 93.8619 10.0653C92.9984 8.6947 91.4812 7.95665 89.3641 7.95665C87.2471 7.95665 85.4974 8.8022 84.2271 10.0199C84.0881 10.1542 83.8535 10.055 83.8535 9.86068V9.29422C83.8535 8.8084 83.4592 8.4156 82.9714 8.4156H76.4666C75.8564 8.4156 75.4724 8.94691 75.6094 9.49889C76.066 11.3636 76.2757 13.615 76.2757 16.656V31.483C76.2757 31.9688 76.67 32.3616 77.1578 32.3616H83.3824C83.8701 32.3616 84.2645 31.9688 84.2645 31.483V15.7361C84.2645 14.6983 84.6319 13.9809 85.5845 13.9809C86.4687 13.9809 86.7406 14.7003 86.7406 15.7423V31.4851C86.7406 31.9709 87.135 32.3637 87.6227 32.3637H93.8473C94.3351 32.3637 94.7294 31.9709 94.7294 31.4851V15.6968C94.7398 14.6859 95.1093 13.983 96.0495 13.983C96.9337 13.983 97.2056 14.7024 97.2056 15.7443V31.4871C97.2056 31.973 97.5999 32.3658 98.0877 32.3658H104.312C104.8 32.3658 105.194 31.973 105.194 31.4871V13.9499C105.194 10.2431 103.285 7.96286 99.7087 7.96286L99.7108 7.95665Z" fill="#FFFFF1"/>
<path d="M65.7589 7.95665C62.9444 7.95665 59.6671 8.55825 57.0519 10.7083C56.78 10.9336 56.6202 11.2665 56.6202 11.6179V16.9971C56.6202 17.6401 57.355 17.9957 57.8614 17.5615C60.4745 15.3205 63.042 14.0119 64.8934 14.0119C65.8834 14.0119 66.4853 14.2786 66.4853 15.0497C66.4853 16.2694 64.7522 16.7594 61.5517 18.2003C58.4903 19.5772 55.1362 21.6052 55.1362 26.232C55.1362 30.4225 57.7555 32.7586 61.1823 32.7586C63.9116 32.7586 65.3666 31.8055 66.4355 30.5837C66.5684 30.4307 66.8216 30.5258 66.8216 30.7284V31.4809C66.8216 31.9668 67.2159 32.3596 67.7037 32.3596H73.4156C73.9034 32.3596 74.2977 31.9668 74.2977 31.4809V16.0276C74.2977 10.4891 71.5642 7.95665 65.7589 7.95665ZM66.6701 24.3093C66.6701 26.0004 65.8212 26.9224 64.663 26.9224C63.8141 26.9224 63.042 26.3457 63.042 25.1942C63.042 23.3418 64.9017 22.2978 66.3795 21.0305C66.4936 20.9334 66.6701 21.014 66.6701 21.1649V24.3093Z" fill="#FFFFF1"/>
<path d="M142.779 4.77344C141.496 4.77344 140.527 3.86381 140.527 2.54485C140.527 1.22588 141.469 0.316253 142.779 0.316253C144.088 0.316253 145.031 1.27343 145.031 2.54485C145.031 3.81626 144.088 4.77344 142.779 4.77344ZM142.779 0.725587C141.704 0.725587 140.998 1.48223 140.998 2.54485C140.998 3.60746 141.704 4.36411 142.779 4.36411C143.854 4.36411 144.56 3.60746 144.56 2.54485C144.56 1.48223 143.854 0.725587 142.779 0.725587Z" fill="#FFFFF1"/>
<path d="M143.416 2.92692C143.41 2.91658 143.416 2.90211 143.426 2.89591C143.721 2.75533 143.881 2.47624 143.881 2.12479C143.881 1.91806 143.81 1.24411 142.909 1.24411H141.924C141.872 1.24411 141.855 1.27718 141.872 1.31646C141.919 1.43637 141.942 1.51079 141.942 1.77955V3.66496C141.942 3.69804 141.969 3.72491 142.002 3.72491H142.484C142.517 3.72491 142.544 3.69804 142.544 3.66496V3.02202C142.544 3.00961 142.555 2.99928 142.567 2.99928H142.775C142.785 2.99928 142.795 3.00548 142.801 3.01582L143.125 3.68564C143.138 3.70838 143.161 3.72491 143.188 3.72491H143.789C143.839 3.72491 143.86 3.68357 143.837 3.64222L143.416 2.92279V2.92692ZM142.849 2.5548H142.567C142.555 2.5548 142.544 2.54446 142.544 2.53206V1.76301C142.544 1.7506 142.555 1.74027 142.567 1.74027H142.849C143.215 1.74027 143.271 1.99248 143.271 2.14133C143.271 2.26537 143.229 2.55687 142.849 2.55687V2.5548Z" fill="#FFFFF1"/>
</g>
</g>
<defs>
<clipPath id="clip0_1388_42683">
<rect width="146.667" height="48" fill="white" transform="translate(0.666687)"/>
</clipPath>
</defs>
</svg>
